<svg preserveAspectRatio="none" width="100%" height="100%" overflow="visible" style="display: block;" viewBox="0 0 30 30" fill="none" xmlns="http://www.w3.org/2000/svg">
<g id="Insta SVG">
<g id="XMLID_323_">
<path id="XMLID_328_" d="M18.1436 23.1092H11.8562C9.11826 23.1092 6.89087 20.8818 6.89087 18.1438V11.8562C6.89087 9.1182 9.11826 6.89081 11.8562 6.89081H18.1436C20.8816 6.89081 23.109 9.1182 23.109 11.8562V18.1438C23.1092 20.8815 20.8818 23.1092 18.1436 23.1092ZM11.8562 8.10525C9.78802 8.10525 8.10531 9.78796 8.10531 11.8562V18.1438C8.10531 20.212 9.78802 21.8947 11.8562 21.8947H18.1436C20.2121 21.8947 21.8948 20.212 21.8948 18.1438V11.8562C21.8948 9.78796 20.2121 8.10525 18.1436 8.10525H11.8562Z" fill="var(--fill-0, #C59F5C)"/>
<path id="XMLID_325_" d="M14.9999 19.1025C12.7378 19.1025 10.8976 17.2621 10.8976 15C10.8976 12.7379 12.7378 10.8975 14.9999 10.8975C17.262 10.8975 19.1024 12.7379 19.1024 15C19.1024 17.2621 17.262 19.1025 14.9999 19.1025ZM14.9999 12.1412C13.4235 12.1412 12.1411 13.4236 12.1411 15.0002C12.1411 16.5766 13.4235 17.859 14.9999 17.859C16.5763 17.859 17.8587 16.5766 17.8587 15.0002C17.8587 13.4236 16.5763 12.1412 14.9999 12.1412Z" fill="var(--fill-0, #C59F5C)"/>
<path id="XMLID_324_" d="M20.6169 10.4513C20.6169 11.0412 20.1388 11.5194 19.5488 11.5194C18.9589 11.5194 18.4807 11.0412 18.4807 10.4513C18.4807 9.86133 18.9589 9.38318 19.5488 9.38318C20.1388 9.38318 20.6169 9.86133 20.6169 10.4513Z" fill="var(--fill-0, #C59F5C)"/>
</g>
<path id="XMLID_378_" d="M21.025 30H8.97526C4.02632 30 0 25.9739 0 21.025V8.97526C0 4.02632 4.02632 0 8.97526 0H21.025C25.9739 0 30 4.02632 30 8.97526V21.025C30 25.9739 25.9737 30 21.025 30ZM8.97505 1.2456C4.71313 1.2456 1.24561 4.71313 1.24561 8.97505V21.0247C1.24561 25.2869 4.71313 28.7542 8.97505 28.7542H21.0247C25.2867 28.7542 28.7542 25.2869 28.7542 21.0247V8.97505C28.7542 4.71292 25.2869 1.2456 21.0247 1.2456H8.97505Z" fill="var(--fill-0, #C59F5C)"/>
</g>
</svg>
